<svg xmlns="http://www.w3.org/2000/svg" version="1.1" xmlns:xlink="http://www.w3.org/1999/xlink" xmlns:svgjs="http://svgjs.dev/svgjs" width="1440" height="560" preserveAspectRatio="none" viewBox="0 0 1440 560"><g mask="url(&quot;#SvgjsMask1000&quot;)" fill="none"><rect width="1440" height="560" x="0" y="0" fill="#0e2a47"></rect><path d="M92.02 290.4L156.98 327.9L156.98 402.9L92.02 440.4L27.07 402.9L27.07 327.9zM221.93 290.4L286.88 327.9L286.88 402.9L221.93 440.4L156.98 402.9L156.98 327.9zM221.93 515.4L286.88 552.9L286.88 627.9L221.93 665.4L156.98 627.9L156.98 552.9zM481.75 290.4L546.7 327.9L546.7 402.9L481.75 440.4L416.79 402.9L416.79 327.9zM546.7 402.9L611.65 440.4L611.65 515.4L546.7 552.9L481.75 515.4L481.75 440.4zM676.61 177.9L741.56 215.4L741.56 290.4L676.61 327.9L611.65 290.4L611.65 215.4zM871.47 65.4L936.42 102.9L936.42 177.9L871.47 215.4L806.51 177.9L806.51 102.9zM1001.38 65.4L1066.33 102.9L1066.33 177.9L1001.38 215.4L936.42 177.9L936.42 102.9zM1261.19 65.4L1326.14 102.9L1326.14 177.9L1261.19 215.4L1196.24 177.9L1196.24 102.9zM1326.14 177.9L1391.1 215.4L1391.1 290.4L1326.14 327.9L1261.19 290.4L1261.19 215.4z" stroke="#03305d" stroke-width="2"></path><path d="M84.52 290.4 a7.5 7.5 0 1 0 15 0 a7.5 7.5 0 1 0 -15 0zM149.48 327.9 a7.5 7.5 0 1 0 15 0 a7.5 7.5 0 1 0 -15 0zM149.48 402.9 a7.5 7.5 0 1 0 15 0 a7.5 7.5 0 1 0 -15 0zM84.52 440.4 a7.5 7.5 0 1 0 15 0 a7.5 7.5 0 1 0 -15 0zM19.57 402.9 a7.5 7.5 0 1 0 15 0 a7.5 7.5 0 1 0 -15 0zM19.57 327.9 a7.5 7.5 0 1 0 15 0 a7.5 7.5 0 1 0 -15 0zM214.43 290.4 a7.5 7.5 0 1 0 15 0 a7.5 7.5 0 1 0 -15 0zM279.38 327.9 a7.5 7.5 0 1 0 15 0 a7.5 7.5 0 1 0 -15 0zM279.38 402.9 a7.5 7.5 0 1 0 15 0 a7.5 7.5 0 1 0 -15 0zM214.43 440.4 a7.5 7.5 0 1 0 15 0 a7.5 7.5 0 1 0 -15 0zM214.43 515.4 a7.5 7.5 0 1 0 15 0 a7.5 7.5 0 1 0 -15 0zM279.38 552.9 a7.5 7.5 0 1 0 15 0 a7.5 7.5 0 1 0 -15 0zM279.38 627.9 a7.5 7.5 0 1 0 15 0 a7.5 7.5 0 1 0 -15 0zM214.43 665.4 a7.5 7.5 0 1 0 15 0 a7.5 7.5 0 1 0 -15 0zM149.48 627.9 a7.5 7.5 0 1 0 15 0 a7.5 7.5 0 1 0 -15 0zM149.48 552.9 a7.5 7.5 0 1 0 15 0 a7.5 7.5 0 1 0 -15 0zM474.25 290.4 a7.5 7.5 0 1 0 15 0 a7.5 7.5 0 1 0 -15 0zM539.2 327.9 a7.5 7.5 0 1 0 15 0 a7.5 7.5 0 1 0 -15 0zM539.2 402.9 a7.5 7.5 0 1 0 15 0 a7.5 7.5 0 1 0 -15 0zM474.25 440.4 a7.5 7.5 0 1 0 15 0 a7.5 7.5 0 1 0 -15 0zM409.29 402.9 a7.5 7.5 0 1 0 15 0 a7.5 7.5 0 1 0 -15 0zM409.29 327.9 a7.5 7.5 0 1 0 15 0 a7.5 7.5 0 1 0 -15 0zM604.15 440.4 a7.5 7.5 0 1 0 15 0 a7.5 7.5 0 1 0 -15 0zM604.15 515.4 a7.5 7.5 0 1 0 15 0 a7.5 7.5 0 1 0 -15 0zM539.2 552.9 a7.5 7.5 0 1 0 15 0 a7.5 7.5 0 1 0 -15 0zM474.25 515.4 a7.5 7.5 0 1 0 15 0 a7.5 7.5 0 1 0 -15 0zM669.11 177.9 a7.5 7.5 0 1 0 15 0 a7.5 7.5 0 1 0 -15 0zM734.06 215.4 a7.5 7.5 0 1 0 15 0 a7.5 7.5 0 1 0 -15 0zM734.06 290.4 a7.5 7.5 0 1 0 15 0 a7.5 7.5 0 1 0 -15 0zM669.11 327.9 a7.5 7.5 0 1 0 15 0 a7.5 7.5 0 1 0 -15 0zM604.15 290.4 a7.5 7.5 0 1 0 15 0 a7.5 7.5 0 1 0 -15 0zM604.15 215.4 a7.5 7.5 0 1 0 15 0 a7.5 7.5 0 1 0 -15 0zM863.97 65.4 a7.5 7.5 0 1 0 15 0 a7.5 7.5 0 1 0 -15 0zM928.92 102.9 a7.5 7.5 0 1 0 15 0 a7.5 7.5 0 1 0 -15 0zM928.92 177.9 a7.5 7.5 0 1 0 15 0 a7.5 7.5 0 1 0 -15 0zM863.97 215.4 a7.5 7.5 0 1 0 15 0 a7.5 7.5 0 1 0 -15 0zM799.01 177.9 a7.5 7.5 0 1 0 15 0 a7.5 7.5 0 1 0 -15 0zM799.01 102.9 a7.5 7.5 0 1 0 15 0 a7.5 7.5 0 1 0 -15 0zM993.88 65.4 a7.5 7.5 0 1 0 15 0 a7.5 7.5 0 1 0 -15 0zM1058.83 102.9 a7.5 7.5 0 1 0 15 0 a7.5 7.5 0 1 0 -15 0zM1058.83 177.9 a7.5 7.5 0 1 0 15 0 a7.5 7.5 0 1 0 -15 0zM993.88 215.4 a7.5 7.5 0 1 0 15 0 a7.5 7.5 0 1 0 -15 0zM1253.69 65.4 a7.5 7.5 0 1 0 15 0 a7.5 7.5 0 1 0 -15 0zM1318.64 102.9 a7.5 7.5 0 1 0 15 0 a7.5 7.5 0 1 0 -15 0zM1318.64 177.9 a7.5 7.5 0 1 0 15 0 a7.5 7.5 0 1 0 -15 0zM1253.69 215.4 a7.5 7.5 0 1 0 15 0 a7.5 7.5 0 1 0 -15 0zM1188.74 177.9 a7.5 7.5 0 1 0 15 0 a7.5 7.5 0 1 0 -15 0zM1188.74 102.9 a7.5 7.5 0 1 0 15 0 a7.5 7.5 0 1 0 -15 0zM1383.6 215.4 a7.5 7.5 0 1 0 15 0 a7.5 7.5 0 1 0 -15 0zM1383.6 290.4 a7.5 7.5 0 1 0 15 0 a7.5 7.5 0 1 0 -15 0zM1318.64 327.9 a7.5 7.5 0 1 0 15 0 a7.5 7.5 0 1 0 -15 0zM1253.69 290.4 a7.5 7.5 0 1 0 15 0 a7.5 7.5 0 1 0 -15 0z" fill="#03305d"></path><path d="M42.55 130.9L85.85 155.9L85.85 205.9L42.55 230.9L-0.75 205.9L-0.75 155.9zM42.55 430.9L85.85 455.9L85.85 505.9L42.55 530.9L-0.75 505.9L-0.75 455.9zM85.85 505.9L129.16 530.9L129.16 580.9L85.85 605.9L42.55 580.9L42.55 530.9zM172.46 355.9L215.76 380.9L215.76 430.9L172.46 455.9L129.16 430.9L129.16 380.9zM129.16 430.9L172.46 455.9L172.46 505.9L129.16 530.9L85.85 505.9L85.85 455.9zM215.76 -19.1L259.06 5.9L259.06 55.9L215.76 80.9L172.46 55.9L172.46 5.9zM259.06 355.9L302.37 380.9L302.37 430.9L259.06 455.9L215.76 430.9L215.76 380.9zM215.76 430.9L259.06 455.9L259.06 505.9L215.76 530.9L172.46 505.9L172.46 455.9zM345.67 205.9L388.97 230.9L388.97 280.9L345.67 305.9L302.37 280.9L302.37 230.9zM345.67 355.9L388.97 380.9L388.97 430.9L345.67 455.9L302.37 430.9L302.37 380.9zM345.67 505.9L388.97 530.9L388.97 580.9L345.67 605.9L302.37 580.9L302.37 530.9zM388.97 -19.1L432.27 5.9L432.27 55.9L388.97 80.9L345.67 55.9L345.67 5.9zM432.27 55.9L475.58 80.9L475.58 130.9L432.27 155.9L388.97 130.9L388.97 80.9zM432.27 205.9L475.58 230.9L475.58 280.9L432.27 305.9L388.97 280.9L388.97 230.9zM518.88 55.9L562.18 80.9L562.18 130.9L518.88 155.9L475.58 130.9L475.58 80.9zM518.88 205.9L562.18 230.9L562.18 280.9L518.88 305.9L475.58 280.9L475.58 230.9zM605.48 55.9L648.78 80.9L648.78 130.9L605.48 155.9L562.18 130.9L562.18 80.9zM562.18 130.9L605.48 155.9L605.48 205.9L562.18 230.9L518.88 205.9L518.88 155.9zM562.18 280.9L605.48 305.9L605.48 355.9L562.18 380.9L518.88 355.9L518.88 305.9zM648.78 130.9L692.09 155.9L692.09 205.9L648.78 230.9L605.48 205.9L605.48 155.9zM648.78 280.9L692.09 305.9L692.09 355.9L648.78 380.9L605.48 355.9L605.48 305.9zM692.09 355.9L735.39 380.9L735.39 430.9L692.09 455.9L648.78 430.9L648.78 380.9zM735.39 -19.1L778.69 5.9L778.69 55.9L735.39 80.9L692.09 55.9L692.09 5.9zM778.69 55.9L822 80.9L822 130.9L778.69 155.9L735.39 130.9L735.39 80.9zM735.39 130.9L778.69 155.9L778.69 205.9L735.39 230.9L692.09 205.9L692.09 155.9zM735.39 430.9L778.69 455.9L778.69 505.9L735.39 530.9L692.09 505.9L692.09 455.9zM865.3 55.9L908.6 80.9L908.6 130.9L865.3 155.9L822 130.9L822 80.9zM822 130.9L865.3 155.9L865.3 205.9L822 230.9L778.69 205.9L778.69 155.9zM865.3 205.9L908.6 230.9L908.6 280.9L865.3 305.9L822 280.9L822 230.9zM951.9 55.9L995.21 80.9L995.21 130.9L951.9 155.9L908.6 130.9L908.6 80.9zM908.6 130.9L951.9 155.9L951.9 205.9L908.6 230.9L865.3 205.9L865.3 155.9zM951.9 205.9L995.21 230.9L995.21 280.9L951.9 305.9L908.6 280.9L908.6 230.9zM951.9 505.9L995.21 530.9L995.21 580.9L951.9 605.9L908.6 580.9L908.6 530.9zM995.21 130.9L1038.51 155.9L1038.51 205.9L995.21 230.9L951.9 205.9L951.9 155.9zM995.21 280.9L1038.51 305.9L1038.51 355.9L995.21 380.9L951.9 355.9L951.9 305.9zM1038.51 355.9L1081.81 380.9L1081.81 430.9L1038.51 455.9L995.21 430.9L995.21 380.9zM995.21 430.9L1038.51 455.9L1038.51 505.9L995.21 530.9L951.9 505.9L951.9 455.9zM1038.51 505.9L1081.81 530.9L1081.81 580.9L1038.51 605.9L995.21 580.9L995.21 530.9zM1081.81 -19.1L1125.11 5.9L1125.11 55.9L1081.81 80.9L1038.51 55.9L1038.51 5.9zM1125.11 55.9L1168.41 80.9L1168.41 130.9L1125.11 155.9L1081.81 130.9L1081.81 80.9zM1081.81 130.9L1125.11 155.9L1125.11 205.9L1081.81 230.9L1038.51 205.9L1038.51 155.9zM1168.41 -19.1L1211.72 5.9L1211.72 55.9L1168.41 80.9L1125.11 55.9L1125.11 5.9zM1168.41 130.9L1211.72 155.9L1211.72 205.9L1168.41 230.9L1125.11 205.9L1125.11 155.9zM1211.72 205.9L1255.02 230.9L1255.02 280.9L1211.72 305.9L1168.41 280.9L1168.41 230.9zM1211.72 355.9L1255.02 380.9L1255.02 430.9L1211.72 455.9L1168.41 430.9L1168.41 380.9zM1211.72 505.9L1255.02 530.9L1255.02 580.9L1211.72 605.9L1168.41 580.9L1168.41 530.9zM1298.32 55.9L1341.63 80.9L1341.63 130.9L1298.32 155.9L1255.02 130.9L1255.02 80.9zM1255.02 430.9L1298.32 455.9L1298.32 505.9L1255.02 530.9L1211.72 505.9L1211.72 455.9zM1384.93 55.9L1428.23 80.9L1428.23 130.9L1384.93 155.9L1341.63 130.9L1341.63 80.9zM1341.63 130.9L1384.93 155.9L1384.93 205.9L1341.63 230.9L1298.32 205.9L1298.32 155.9zM1428.23 280.9L1471.53 305.9L1471.53 355.9L1428.23 380.9L1384.93 355.9L1384.93 305.9zM1471.53 355.9L1514.84 380.9L1514.84 430.9L1471.53 455.9L1428.23 430.9L1428.23 380.9zM1428.23 430.9L1471.53 455.9L1471.53 505.9L1428.23 530.9L1384.93 505.9L1384.93 455.9zM1471.53 505.9L1514.84 530.9L1514.84 580.9L1471.53 605.9L1428.23 580.9L1428.23 530.9z" stroke="rgba(6, 80, 156, 0.93)" stroke-width="2"></path></g><defs><mask id="SvgjsMask1000"><rect width="1440" height="560" fill="#ffffff"></rect></mask></defs></svg>